<?xml version="1.0" encoding="UTF-8"?>
<svg id="Layer_1" data-name="Layer 1" xmlns="http://www.w3.org/2000/svg" viewBox="0 0 169.99 71.01">
  <defs>
    <style>
      .cls-1 {
        fill: #000;
        stroke-width: 0px;
      }
    </style>
  </defs>
  <path class="cls-1" d="M57.97,65.51h6.53v5.35h-11.61v-27.11h5.08s0,21.75,0,21.75ZM14.6,55.33l-1.4-11.58h-5.23l-1.26,11.58-1.33-11.58H0l4.41,27.11h4.82l1.47-9.73,1.63,9.73h4.81l4.02-27.11h-5.32l-1.26,11.58ZM47.79,59.23l3.19,11.63h-5.37l-2.71-9.78h-1.33v9.78h-4.79v-27.11s6.39,0,6.39,0c4.01.21,6.25,2.24,6.79,6.35l.03,4.86c.01,1.64-1.43,3.46-2.2,4.27ZM44.99,50.32c0-.53-.59-1.2-1.18-1.2h-2.22v6.63h1.78c.89,0,1.62-.66,1.62-1.46,0,0,0-3.98,0-3.98ZM34.86,50.74l.05,13.83c0,2.1-1.38,3.99-1.93,4.51-1.29,1.24-2.5,1.78-4.33,1.78-.08,0-.17,0-.25,0-1.98-.05-2.91-.44-4.49-1.8-1.09-.93-2-2.56-2-4.95v-13.42c0-1.27.3-3.08,1.3-4.27,1.01-1.21,2.4-2.67,5.2-2.67,0,0,.01,0,.02,0h0c3.56.01,6.43,3.08,6.44,6.99ZM29.88,50.23c0-.82-.68-1.48-1.52-1.48-.83,0-1.52.67-1.52,1.48v14.01c0,.81.68,1.48,1.52,1.48.83,0,1.52-.67,1.52-1.48v-14.01ZM89.77,66.32c.15,2.31-2.03,4.54-4.56,4.54h0c-2.53,0-4.34-2.44-4.15-4.96l.05-8.99c.05-2.5,1.68-4.39,4.34-4.39h.04c2.03.01,4.44,1.83,4.29,4.35v9.43h0ZM86.23,56.92c0-.45-.38-.83-.83-.83s-.83.37-.83.83v9.19c0,.46.38.83.83.83s.83-.38.83-.83v-9.19ZM134.92,56.27l-3.96-12.52h-5.43v27.11h5.17l.05-12.95,4.09,12.95h5.17v-27.11h-5.03l-.06,12.52ZM156.7,43.75h-6.13l-3.6,7.64v-7.64h-5.07v27.11h4.92l.02-11.33,4.35,11.33h5.67s-6.3-15.96-6.3-15.96l6.14-11.15ZM166.65,57c-.76-.72-1.28-1.22-1.78-1.66-.45-.39-.89-.74-1.34-1.17-.64-.61-1.84-2.18-1.91-3.28-.04-.65-.13-1.17.45-1.95.27-.36.64-.49.98-.49.08,0,.16,0,.23.02.56.1,1.05.63,1.23,1.48l.25,1.47,4.92-.7c-.04-.38-.01-1.74-.32-2.56-.84-2.29-2.63-3.89-4.9-4.38-.48-.1-.97-.15-1.46-.15-.88,0-1.81.16-2.8.48-1.69.62-3.93,3.05-3.84,6.16.04,1.54.03,2.88,1.09,4.59,1.42,2.3,3.6,4.04,5.82,6.14.96.91,1.79,2.51,1.14,3.98-.27.61-.81,1-1.41,1-.36,0-.73-.14-1.08-.45-1.02-.9-.91-2.41-1.04-3.19l-5,.1c-.04,3.34,1.42,6.1,3.15,7.44,1.72,1.34,5,1.38,6.96.62,1.34-.52,3.63-3.03,3.97-5.95.37-3.12-1.7-6.05-3.3-7.56ZM119.77,43.75l4.51,27.11h-5.35l-.91-6.36h-2.72s-1.05,6.36-1.05,6.36h-5.34l4.61-27.11h6.25ZM117.41,59.98l-.79-5.53-.96,5.53h1.75ZM79.24,50.72l-.04,13.24c.17,2.81-1.83,6.86-6.33,6.91h-6.4v-27.11h6.76c3.19,0,6.19,2.99,6,6.97ZM74.49,50.52c0-.79-.6-1.43-1.34-1.43h-1.79v16.47h1.79c.74,0,1.34-.64,1.34-1.43v-13.61ZM91.64,70.86h3.64v-7.55h3.4v-3.32h-3.44v-3.55h4.69v-3.67l-8.28.02-.02,18.08ZM110.86,43.75h-13.05v5.19h4.01v21.92h5.15v-21.92h3.9s0-5.19,0-5.19ZM80.01,12.98h-6.68v16.19l5.07,5.15,4.79-4.68-3.17-3.04s0-13.62,0-13.62ZM93.31,26.6l-3.05,3.04h0s4.66,4.68,4.66,4.68l5.07-5.15V12.98h-6.69v13.61h0ZM80.45,3.12l-7.05,7.17h9.85v28.83l3.47,3.48,3.47-3.48V10.29h9.85l-6.92-7.17h-12.66ZM86.67,47.79l-17.12-17.01V9.14L78.75,0h16.03l8.98,8.93v21.87l-17.09,16.99ZM86.67,45.13l15.26-15.17V9.62l-8.02-7.97h-14.31l-8.21,8.16v20.13l15.28,15.19Z"/>
</svg>